<VTKFile type="UnstructuredGrid" version="0.1" byte_order="BigEndian">
  <UnstructuredGrid>
    <Piece NumberOfPoints="411" NumberOfCells="0">
      <Points>
        <DataArray type="Float32" NumberOfComponents="3" format="ascii">
          11.6705 -4.91521 42.8479
          5.89183 -7.20174 45.69
          -8.63041 16.8513 60.837
          -11.5206 23.3853 53.8344
          3.03918 8.78703 39.8911
          5.7713 -10.3347 54.7091
          -21.2024 -8.77674 54.1531
          7.40488 6.21656 40.5383
          11.7985 22.3503 54.8253
          18.4896 27.4762 30.0505
          11.597 16.6104 33.389
          0.689735 1.21061 45.8003
          -20.2763 6.99561 36.603
          -7.84454 -14.0147 48.1943
          -21.5138 10.2088 52.8103
          19.073 6.71584 53.315
          22.6182 4.05933 33.9636
          8.05989 11.2191 35.836
          -3.24216 22.3996 34.4131
          14.7608 6.08122 36.3613
          -8.89809 6.77144 40.8394
          13.301 -10.9107 49.5552
          12.4096 -1.69168 55.332
          -1.81322 1.74366 63.5908
          8.84255 9.71036 61.537
          3.66945 18.0429 34.8051
          4.83674 28.4207 44.2222
          27.0238 18.7352 42.9388
          36.069 17.0993 23.6061
          -17.4952 21.6615 39.8751
          35.2565 9.95827 35.6818
          -27.7251 0.0736488 45.8759
          24.5778 -2.55811 45.4138
          -9.39268 -8.70558 60.3109
          -15.6409 -4.124 43.3052
          24.5629 16.0495 29.4632
          25.8885 24.6199 19.2791
          -13.8976 3.13229 60.0502
          16.4066 24.8905 41.9099
          3.05951 -18.8488 46.6608
          0.226089 25.2335 54.7494
          -6.41993 26.9305 44.3286
          28.7762 7.79104 44.5573
          -11.0765 15.0518 34.3541
          20.3913 17.1181 51.1792
          27.7707 24.8454 34.3545
          -23.9435 14.1416 43.3757
          1.81137 17.5003 61.6647
          -24.3976 -9.65623 44.2903
          31.0197 8.77221 26.5187
          32.2541 0.534909 32.6519
          24.4173 -6.68073 35.2536
          -14.4126 -16.172 55.6207
          -20.9757 0.765922 54.0988
          -6.67902 -4.75784 46.3971
          -18.7934 18.794 49.8386
          19.5714 -9.9814 42.5872
          -2.80431 -13.8024 56.0656
          34.2661 18.5638 32.5275
          31.986 24.943 26.1698
          -20.1694 15.6173 33.5538
          8.89681 24.9376 37.0583
          -16.66 -12.7156 47.5446
          4.55374 -2.84246 59.3726
          -3.20449 10.5131 63.8888
          14.9955 14.6701 57.6784
          -15.2616 11.6264 58.7031
          17.8809 -1.86412 37.8626
          -22.3926 -0.817355 39.2825
          -3.15259 13.5096 36.7139
          -3.70267 -20.6065 51.2721
          -24.0442 -15.5343 50.1882
          -27.2435 6.8632 41.1193
          18.217 -4.39682 50.2319
          -10.3594 24.7911 37.5415
          30.0418 0.877633 40.4687
          18.4559 12.4643 33.2203
          -15.8186 -4.4189 58.1814
          -13.7357 24.5022 46.2799
          -29.0833 -4.98797 39.9482
          -0.366118 -11.7679 47.1343
          10.9847 24.9326 47.5133
          28.4032 18.3211 23.0903
          8.77194 -14.2316 44.2367
          -1.82436 -7.17617 59.9256
          22.1927 22.3279 25.6538
          -8.51801 -1.54508 62.5198
          -15.341 2.87637 40.5337
          23.8433 10.7867 49.2798
          -11.0628 -20.2975 50.4539
          13.335 5.23763 57.7347
          32.674 15.8848 39.1901
          1.77196 26.5469 37.8171
          17.8495 19.313 30.7137
          8.7857 17.862 59.6742
          32.8221 22.6489 19.3868
          23.2307 23.9975 39.8552
          36.568 12.5168 29.1064
          -25.2344 6.44996 47.9811
          4.78837 3.84325 61.8652
          23.5931 3.68529 48.7104
          -9.76427 8.56765 61.9939
          -5.59271 22.3437 57.562
          -15.6807 18.1787 56.1345
          7.58814 0.516342 44.6463
          -25.3876 -5.31524 49.7121
          21.0974 21.9782 46.2011
          -5.71152 26.2331 51.2311
          25.9035 9.46289 31.1369
          -14.0002 9.61509 37.2893
          -5.91798 1.64534 44.196
          26.0202 27.1677 28.3022
          2.54372 -15.7882 52.5813
          12.0317 0.95549 39.672
          6.4333 25.4176 52.3483
          -24.4831 12.0783 37.1114
          -18.1024 -18.382 50.6113
          15.2157 25.8931 35.5248
          -0.168158 -5.15356 47.1957
          0.131543 27.6622 48.6875
          -14.2311 20.6927 34.3815
          -11.94 -8.49693 46.2807
          -18.4931 6.08514 56.6863
          -8.11221 -17.317 55.3034
          26.0835 -1.12596 32.5683
          -2.60841 6.61449 41.9309
          16.2501 22.6511 50.2788
          3.06542 11.5331 63.4899
          5.05741 22.5846 57.8052
          34.7087 6.02324 30.8066
          -28.328 1.12976 38.8477
          -16.1425 -10.4851 57.2077
          13.4921 -10.7544 42.4466
          7.86695 -13.9353 50.2583
          32.2259 6.51566 39.6965
          27.0838 -4.41315 40.2092
          17.3323 0.927463 52.9743
          10.8106 -7.23305 53.6152
          22.8383 27.7581 23.3097
          28.7339 4.40402 29.8344
          -21.5137 17.3836 39.0495
          -4.00071 26.0502 39.004
          22.0942 26.4338 34.6034
          29.7166 20.8461 38.1764
          27.2647 13.3928 45.3127
          -11.2775 -0.309965 43.1682
          -8.52324 20.1856 33.6781
          9.10194 1.47389 58.8481
          18.9481 12.4086 54.1575
          -22.1068 14.245 48.7956
          -20.1727 19.2164 44.3015
          -29.0059 -6.493 45.4553
          -21.0824 -5.47576 42.2906
          -19.5453 -14.2093 54.1843
          -25.611 5.18151 35.9542
          31.5667 13.6572 23.6964
          -8.32603 11.4916 37.7793
          -7.06577 3.83123 63.4911
          9.78511 26.6308 42.3177
          -0.591425 27.6288 43.144
          16.3975 19.0665 54.5478
          -3.42025 15.8502 62.4257
          35.2123 20.7527 27.5964
          19.7204 -7.00111 38.0164
          13.367 11.0472 34.5834
          -26.3359 -10.6687 49.2861
          27.2909 2.55443 44.867
          -24.5982 1.47925 50.1016
          -1.94227 -16.9498 47.6487
          -0.335091 21.4573 58.6185
          0.562848 6.61239 63.8369
          2.25992 13.2485 36.9095
          23.8844 17.2222 47.0631
          31.8892 23.2342 31.278
          -19.3068 15.0462 53.6736
          -10.5199 -13.3403 57.921
          28.1387 27.2637 23.3146
          31.5145 11.3691 41.74
          12.0867 21.8293 34.1827
          17.6812 -8.84594 47.405
          29.7468 -2.61571 36.0408
          -5.10508 -9.60211 47.5825
          1.03155 -10.3539 56.9137
          -11.2979 20.2636 57.9758
          32.4333 17.5017 19.9246
          -3.54935 -2.99991 62.4538
          28.4644 13.086 27.7983
          1.89789 22.857 34.2059
          3.25253 4.9389 43.3208
          -12.6679 -15.6408 48.9593
          15.9489 9.63728 57.2759
          -17.8918 -8.39153 45.0636
          -1.40308 17.6194 34.1988
          -15.3882 22.4875 50.6511
          -15.7697 13.1167 34.0537
          4.51129 -12.0569 45.8563
          -17.2112 0.371611 57.4336
          -19.8353 -4.02933 55.1591
          23.337 -6.63914 42.7347
          19.1928 7.68584 34.6063
          21.649 -0.914256 49.1332
          -13.7017 24.6226 41.2707
          -22.436 5.2928 52.5264
          4.03453 -2.59626 46.2909
          35.1328 10.6687 24.9067
          32.3876 4.58644 27.2704
          0.669884 -19.3348 50.4777
          -28.296 -10.6478 45.5534
          -27.6014 -8.46496 42.374
          22.3762 -9.22772 39.9106
          -23.6198 8.75916 34.3714
          -25.3096 -12.4024 46.3565
          -20.8803 -11.4838 46.4731
          15.5786 23.5505 31.3012
          13.0366 -13.7473 45.9271
          -1.85704 -20.4339 48.2585
          -5.17578 -18.6934 48.4026
          34.3192 14.6637 21.41
          6.1373 28.3739 39.3953
          30.0556 26.1069 19.4925
          19.2602 25.9581 25.7052
          -14.6947 -19.9668 53.1515
          29.6927 -2.22515 32.2773
          19.2394 -9.95884 39.3317
          15.736 -7.02432 40.5783
          29.5877 20.3227 19.8259
          29.7937 23.1111 17.822
          22.2354 28.206 27.292
          31.1234 1.51197 29.1419
          7.16815 -17.1568 47.2257
          9.64286 -14.8217 47.4827
          16.6051 -11.3335 44.6556
          9.18453 -16.6094 45.4873
          11.4327 -15.3718 44.1448
          -16.2063 17.2213 32.5619
          27.2458 27.2677 20.2987
          34.6257 7.70648 27.2968
          33.3248 8.35939 24.7455
          13.6058 -13.6813 43.0016
          15.8212 -12.2386 42.1491
          20.996 -9.05893 37.9266
          31.2508 21.1575 18.206
          6.67068 -15.7688 44.961
          -30.0239 -6.50431 42.5068
          -29.4177 -2.51413 43.1929
          -29.5751 -8.53291 44.0096
          9.21834 27.3589 39.2017
          13.1243 26.3744 39.9558
          11.4989 26.4849 37.3835
          7.45397 -17.5535 45.3075
          4.93701 -17.5003 45.6168
          1.98012 -15.0299 46.5713
          -12.7657 17.8164 32.9851
          -17.1131 -17.5376 53.8612
          -19.9934 -16.9614 52.703
          -20.2561 -15.4523 49.0578
          -20.4189 -17.5596 50.3416
          -4.14442 -20.8093 48.913
          -7.40878 -21.2583 50.7925
          -9.31128 -20.0582 53.4794
          33.788 12.0057 22.622
          -13.9498 -18.5403 50.1657
          -0.549476 20.7418 33.1877
          -3.23749 19.6988 33.3845
          -5.27777 16.454 34.8231
          34.1095 5.33931 35.4824
          -18.4273 18.9043 36.1196
          3.73106 -17.7244 49.9118
          2.7314 14.3464 50.0281
          -8.18646 12.5565 50.2456
          12.3239 14.452 44.9271
          -2.36193 5.50033 54.3218
          -3.61406 18.187 44.6074
          -11.2614 3.96759 51.2937
          8.99271 7.70461 50.094
          16.1519 6.55172 45.0373
          4.91393 19.468 43.3171
          -15.2729 9.62032 46.0327
          -6.09196 -2.10575 54.4219
          -11.798 16.824 43.6123
          18.4668 17.0984 40.0672
          4.3827 1.93908 52.643
          24.8573 13.1948 37.9008
          -2.5584 13.0565 55.376
          4.06286 9.33746 55.6414
          9.95361 15.5207 52.0628
          -17.5852 2.38927 47.6427
          -13.5898 -3.11926 51.1813
          22.3845 6.56358 41.1352
          -2.60961 19.3019 51.6983
          -2.10027 9.41683 48.4208
          -9.22641 -8.29868 53.1583
          14.1503 0.167765 46.8602
          0.471875 -4.14701 53.9798
          11.5238 19.7601 40.6818
          -8.67459 19.9299 48.7545
          22.8439 19.0714 35.2524
          18.8409 12.7351 45.1968
          6.3225 11.4108 45.1494
          -8.33078 8.33441 55.45
          -20.5007 6.5112 43.2644
          -6.1586 12.1302 43.9799
          -14.022 9.8231 52.4935
          19.5278 1.17314 43.3612
          14.641 10.7625 49.6658
          0.285409 13.1411 43.7468
          3.21142 20.7188 49.3827
          -16.8568 13.6526 41.3354
          -0.274716 20.8574 39.8664
          30.1293 13.3172 33.9438
          4.09002 15.6464 56.0653
          -7.55032 19.6492 39.893
          -19.4091 -3.53655 48.7898
          9.08042 -2.35809 50.0378
          -7.68053 6.91186 47.0861
          15.0383 10.8287 40.6087
          -13.7658 15.1566 49.2835
          21.9628 -0.676431 35.2996
          -0.189699 0.773088 57.6893
          -13.0137 15.7917 59.2859
          -7.41228 16.8004 54.6593
          26.8375 7.45913 36.8793
          10.1147 10.421 55.4961
          -3.17788 -1.51393 46.4986
          -8.30454 2.6152 57.624
          17.0004 23.5477 46.0473
          7.84069 14.9877 40.5383
          9.40421 19.1391 47.2968
          3.1731 6.6222 49.0843
          -5.5816 2.30958 50.4198
          -3.30199 -8.65313 53.1568
          -14.9146 -8.85641 51.6631
          25.083 18.9174 26.0505
          11.938 2.84219 51.6115
          28.4357 18.7994 32.8597
          16.6235 17.8248 46.8403
          -4.43127 7.01604 59.4792
          -22.04 -0.108659 44.9852
          24.2841 1.24661 40.1702
          10.5921 5.32584 45.1731
          -12.6842 4.56346 45.7426
          -3.87403 27.2142 47.6188
          4.95595 -6.0484 51.1326
          -0.760096 22.8095 46.0141
          23.9155 22.5525 30.9869
          -11.7735 -4.57275 60.74
          17.6316 20.8919 36.0612
          21.3697 -4.83288 47.2691
          -11.5719 11.4257 42.2947
          15.413 -7.46959 50.634
          -11.5532 -1.58864 56.0895
          8.08985 5.3019 54.9902
          7.00918 20.0155 53.3263
          -7.19933 12.5616 62.3147
          -3.37201 14.717 48.823
          -13.8003 17.2108 38.5554
          0.0155046 10.1484 59.1949
          -0.553743 0.309208 51.024
          -9.65635 -0.644159 48.3514
          18.4805 2.81776 36.377
          -19.6185 7.54952 48.4987
          13.67 15.4672 38.2305
          30.5945 18.0219 27.9941
          20.1122 10.8585 38.8432
          -16.3278 3.09535 52.803
          -10.5434 25.9342 43.8298
          17.1133 -3.48931 44.3369
          6.03287 21.7837 35.6144
          4.27671 24.8621 35.933
          31.7688 0.90894 36.7271
          22.7279 14.9949 42.4014
          -12.1214 14.4312 54.2556
          8.37313 -4.18553 56.5949
          20.5411 2.46094 51.0576
          9.83489 -8.79875 44.2068
          4.64083 27.2004 48.5845
          21.1754 7.55485 46.1356
          1.53488 -9.96933 51.6631
          -12.9394 5.95601 55.7931
          30.5742 8.23201 33.0261
          -3.93463 -13.3986 47.7934
          -5.11315 -10.6698 59.0161
          -17.0795 22.4064 44.2364
          10.0269 10.4827 41.7063
          2.66107 27.5796 41.2994
          -10.1639 -13.3328 52.8002
          1.80906 19.8622 54.241
          3.32024 4.44558 56.9888
          -20.0101 11.2996 45.0263
          -5.84092 -6.4827 61.3415
          14.9231 2.5212 37.7314
          14.9421 15.6273 51.1021
          26.9842 2.45574 36.0478
          -3.77918 19.3513 60.0087
          -7.03795 21.9078 44.393
          -2.3241 3.42215 44.344
          7.71916 26.6695 46.218
          -19.6036 10.7777 34.2666
          -22.8549 12.2219 33.9341
          -20.4464 12.9787 32.8691
          6.59789 11.7383 51.983
          -17.6891 12.025 49.8131
          29.6001 25.7424 29.2329
          -20.6803 10.6212 40.0787
          1.16345 17.5273 46.0652
          16.217 6.30848 55.6527
          16.2241 4.66847 49.7051
          -3.87403 -4.40217 50.5465
          9.91483 -10.7769 51.8165
          7.66114 2.99706 49.0016
          -8.65555 12.8836 57.5293
        </DataArray>
      </Points>
      <Cells>
        <DataArray type="Int32" Name="connectivity" format="ascii">
        </DataArray>
        <DataArray type="Int32" Name="offsets" format="ascii">
          
        </DataArray>
        <DataArray type="UInt8" Name="types" format="ascii">
          
        </DataArray>
      </Cells>
    </Piece>
  </UnstructuredGrid>
</VTKFile>
