<VTKFile type="UnstructuredGrid" version="0.1" byte_order="BigEndian">
  <UnstructuredGrid>
    <Piece NumberOfPoints="411" NumberOfCells="1515">
      <Points>
        <DataArray type="Float32" NumberOfComponents="3" format="ascii">
          11.6705 -4.91521 42.8479
          5.89183 -7.20174 45.69
          -8.63041 16.8513 60.837
          -11.5206 23.3853 53.8344
          3.03918 8.78703 39.8911
          5.7713 -10.3347 54.7091
          -21.2024 -8.77674 54.1531
          7.40488 6.21656 40.5383
          11.7985 22.3503 54.8253
          18.4896 27.4762 30.0505
          11.597 16.6104 33.389
          0.689735 1.21061 45.8003
          -20.2763 6.99561 36.603
          -7.84454 -14.0147 48.1943
          -21.5138 10.2088 52.8103
          19.073 6.71584 53.315
          22.6182 4.05933 33.9636
          8.05989 11.2191 35.836
          -3.24216 22.3996 34.4131
          14.7608 6.08122 36.3613
          -8.89809 6.77144 40.8394
          13.301 -10.9107 49.5552
          12.4096 -1.69168 55.332
          -1.81322 1.74366 63.5908
          8.84255 9.71036 61.537
          3.66945 18.0429 34.8051
          4.83674 28.4207 44.2222
          27.0238 18.7352 42.9388
          36.069 17.0993 23.6061
          -17.4952 21.6615 39.8751
          35.2565 9.95827 35.6818
          -27.7251 0.0736488 45.8759
          24.5778 -2.55811 45.4138
          -9.39268 -8.70558 60.3109
          -15.6409 -4.124 43.3052
          24.5629 16.0495 29.4632
          25.8885 24.6199 19.2791
          -13.8976 3.13229 60.0502
          16.4066 24.8905 41.9099
          3.05951 -18.8488 46.6608
          0.226089 25.2335 54.7494
          -6.41993 26.9305 44.3286
          28.7762 7.79104 44.5573
          -11.0765 15.0518 34.3541
          20.3913 17.1181 51.1792
          27.7707 24.8454 34.3545
          -23.9435 14.1416 43.3757
          1.81137 17.5003 61.6647
          -24.3976 -9.65623 44.2903
          31.0197 8.77221 26.5187
          32.2541 0.534909 32.6519
          24.4173 -6.68073 35.2536
          -14.4126 -16.172 55.6207
          -20.9757 0.765922 54.0988
          -6.67902 -4.75784 46.3971
          -18.7934 18.794 49.8386
          19.5714 -9.9814 42.5872
          -2.80431 -13.8024 56.0656
          34.2661 18.5638 32.5275
          31.986 24.943 26.1698
          -20.1694 15.6173 33.5538
          8.89681 24.9376 37.0583
          -16.66 -12.7156 47.5446
          4.55374 -2.84246 59.3726
          -3.20449 10.5131 63.8888
          14.9955 14.6701 57.6784
          -15.2616 11.6264 58.7031
          17.8809 -1.86412 37.8626
          -22.3926 -0.817355 39.2825
          -3.15259 13.5096 36.7139
          -3.70267 -20.6065 51.2721
          -24.0442 -15.5343 50.1882
          -27.2435 6.8632 41.1193
          18.217 -4.39682 50.2319
          -10.3594 24.7911 37.5415
          30.0418 0.877633 40.4687
          18.4559 12.4643 33.2203
          -15.8186 -4.4189 58.1814
          -13.7357 24.5022 46.2799
          -29.0833 -4.98797 39.9482
          -0.366118 -11.7679 47.1343
          10.9847 24.9326 47.5133
          28.4032 18.3211 23.0903
          8.77194 -14.2316 44.2367
          -1.82436 -7.17617 59.9256
          22.1927 22.3279 25.6538
          -8.51801 -1.54508 62.5198
          -15.341 2.87637 40.5337
          23.8433 10.7867 49.2798
          -11.0628 -20.2975 50.4539
          13.335 5.23763 57.7347
          32.674 15.8848 39.1901
          1.77196 26.5469 37.8171
          17.8495 19.313 30.7137
          8.7857 17.862 59.6742
          32.8221 22.6489 19.3868
          23.2307 23.9975 39.8552
          36.568 12.5168 29.1064
          -25.2344 6.44996 47.9811
          4.78837 3.84325 61.8652
          23.5931 3.68529 48.7104
          -9.76427 8.56765 61.9939
          -5.59271 22.3437 57.562
          -15.6807 18.1787 56.1345
          7.58814 0.516342 44.6463
          -25.3876 -5.31524 49.7121
          21.0974 21.9782 46.2011
          -5.71152 26.2331 51.2311
          25.9035 9.46289 31.1369
          -14.0002 9.61509 37.2893
          -5.91798 1.64534 44.196
          26.0202 27.1677 28.3022
          2.54372 -15.7882 52.5813
          12.0317 0.95549 39.672
          6.4333 25.4176 52.3483
          -24.4831 12.0783 37.1114
          -18.1024 -18.382 50.6113
          15.2157 25.8931 35.5248
          -0.168158 -5.15356 47.1957
          0.131543 27.6622 48.6875
          -14.2311 20.6927 34.3815
          -11.94 -8.49693 46.2807
          -18.4931 6.08514 56.6863
          -8.11221 -17.317 55.3034
          26.0835 -1.12596 32.5683
          -2.60841 6.61449 41.9309
          16.2501 22.6511 50.2788
          3.06542 11.5331 63.4899
          5.05741 22.5846 57.8052
          34.7087 6.02324 30.8066
          -28.328 1.12976 38.8477
          -16.1425 -10.4851 57.2077
          13.4921 -10.7544 42.4466
          7.86695 -13.9353 50.2583
          32.2259 6.51566 39.6965
          27.0838 -4.41315 40.2092
          17.3323 0.927463 52.9743
          10.8106 -7.23305 53.6152
          22.8383 27.7581 23.3097
          28.7339 4.40402 29.8344
          -21.5137 17.3836 39.0495
          -4.00071 26.0502 39.004
          22.0942 26.4338 34.6034
          29.7166 20.8461 38.1764
          27.2647 13.3928 45.3127
          -11.2775 -0.309965 43.1682
          -8.52324 20.1856 33.6781
          9.10194 1.47389 58.8481
          18.9481 12.4086 54.1575
          -22.1068 14.245 48.7956
          -20.1727 19.2164 44.3015
          -29.0059 -6.493 45.4553
          -21.0824 -5.47576 42.2906
          -19.5453 -14.2093 54.1843
          -25.611 5.18151 35.9542
          31.5667 13.6572 23.6964
          -8.32603 11.4916 37.7793
          -7.06577 3.83123 63.4911
          9.78511 26.6308 42.3177
          -0.591425 27.6288 43.144
          16.3975 19.0665 54.5478
          -3.42025 15.8502 62.4257
          35.2123 20.7527 27.5964
          19.7204 -7.00111 38.0164
          13.367 11.0472 34.5834
          -26.3359 -10.6687 49.2861
          27.2909 2.55443 44.867
          -24.5982 1.47925 50.1016
          -1.94227 -16.9498 47.6487
          -0.335091 21.4573 58.6185
          0.562848 6.61239 63.8369
          2.25992 13.2485 36.9095
          23.8844 17.2222 47.0631
          31.8892 23.2342 31.278
          -19.3068 15.0462 53.6736
          -10.5199 -13.3403 57.921
          28.1387 27.2637 23.3146
          31.5145 11.3691 41.74
          12.0867 21.8293 34.1827
          17.6812 -8.84594 47.405
          29.7468 -2.61571 36.0408
          -5.10508 -9.60211 47.5825
          1.03155 -10.3539 56.9137
          -11.2979 20.2636 57.9758
          32.4333 17.5017 19.9246
          -3.54935 -2.99991 62.4538
          28.4644 13.086 27.7983
          1.89789 22.857 34.2059
          3.25253 4.9389 43.3208
          -12.6679 -15.6408 48.9593
          15.9489 9.63728 57.2759
          -17.8918 -8.39153 45.0636
          -1.40308 17.6194 34.1988
          -15.3882 22.4875 50.6511
          -15.7697 13.1167 34.0537
          4.51129 -12.0569 45.8563
          -17.2112 0.371611 57.4336
          -19.8353 -4.02933 55.1591
          23.337 -6.63914 42.7347
          19.1928 7.68584 34.6063
          21.649 -0.914256 49.1332
          -13.7017 24.6226 41.2707
          -22.436 5.2928 52.5264
          4.03453 -2.59626 46.2909
          35.1328 10.6687 24.9067
          32.3876 4.58644 27.2704
          0.669884 -19.3348 50.4777
          -28.296 -10.6478 45.5534
          -27.6014 -8.46496 42.374
          22.3762 -9.22772 39.9106
          -23.6198 8.75916 34.3714
          -25.3096 -12.4024 46.3565
          -20.8803 -11.4838 46.4731
          15.5786 23.5505 31.3012
          13.0366 -13.7473 45.9271
          -1.85704 -20.4339 48.2585
          -5.17578 -18.6934 48.4026
          34.3192 14.6637 21.41
          6.1373 28.3739 39.3953
          30.0556 26.1069 19.4925
          19.2602 25.9581 25.7052
          -14.6947 -19.9668 53.1515
          29.6927 -2.22515 32.2773
          19.2394 -9.95884 39.3317
          15.736 -7.02432 40.5783
          29.5877 20.3227 19.8259
          29.7937 23.1111 17.822
          22.2354 28.206 27.292
          31.1234 1.51197 29.1419
          7.16815 -17.1568 47.2257
          9.64286 -14.8217 47.4827
          16.6051 -11.3335 44.6556
          9.18453 -16.6094 45.4873
          11.4327 -15.3718 44.1448
          -16.2063 17.2213 32.5619
          27.2458 27.2677 20.2987
          34.6257 7.70648 27.2968
          33.3248 8.35939 24.7455
          13.6058 -13.6813 43.0016
          15.8212 -12.2386 42.1491
          20.996 -9.05893 37.9266
          31.2508 21.1575 18.206
          6.67068 -15.7688 44.961
          -30.0239 -6.50431 42.5068
          -29.4177 -2.51413 43.1929
          -29.5751 -8.53291 44.0096
          9.21834 27.3589 39.2017
          13.1243 26.3744 39.9558
          11.4989 26.4849 37.3835
          7.45397 -17.5535 45.3075
          4.93701 -17.5003 45.6168
          1.98012 -15.0299 46.5713
          -12.7657 17.8164 32.9851
          -17.1131 -17.5376 53.8612
          -19.9934 -16.9614 52.703
          -20.2561 -15.4523 49.0578
          -20.4189 -17.5596 50.3416
          -4.14442 -20.8093 48.913
          -7.40878 -21.2583 50.7925
          -9.31128 -20.0582 53.4794
          33.788 12.0057 22.622
          -13.9498 -18.5403 50.1657
          -0.549476 20.7418 33.1877
          -3.23749 19.6988 33.3845
          -5.27777 16.454 34.8231
          34.1095 5.33931 35.4824
          -18.4273 18.9043 36.1196
          3.73106 -17.7244 49.9118
          2.7314 14.3464 50.0281
          -8.18646 12.5565 50.2456
          12.3239 14.452 44.9271
          -2.36193 5.50033 54.3218
          -3.61406 18.187 44.6074
          -11.2614 3.96759 51.2937
          8.99271 7.70461 50.094
          16.1519 6.55172 45.0373
          4.91393 19.468 43.3171
          -15.2729 9.62032 46.0327
          -6.09196 -2.10575 54.4219
          -11.798 16.824 43.6123
          18.4668 17.0984 40.0672
          4.3827 1.93908 52.643
          24.8573 13.1948 37.9008
          -2.5584 13.0565 55.376
          4.06286 9.33746 55.6414
          9.95361 15.5207 52.0628
          -17.5852 2.38927 47.6427
          -13.5898 -3.11926 51.1813
          22.3845 6.56358 41.1352
          -2.60961 19.3019 51.6983
          -2.10027 9.41683 48.4208
          -9.22641 -8.29868 53.1583
          14.1503 0.167765 46.8602
          0.471875 -4.14701 53.9798
          11.5238 19.7601 40.6818
          -8.67459 19.9299 48.7545
          22.8439 19.0714 35.2524
          18.8409 12.7351 45.1968
          6.3225 11.4108 45.1494
          -8.33078 8.33441 55.45
          -20.5007 6.5112 43.2644
          -6.1586 12.1302 43.9799
          -14.022 9.8231 52.4935
          19.5278 1.17314 43.3612
          14.641 10.7625 49.6658
          0.285409 13.1411 43.7468
          3.21142 20.7188 49.3827
          -16.8568 13.6526 41.3354
          -0.274716 20.8574 39.8664
          30.1293 13.3172 33.9438
          4.09002 15.6464 56.0653
          -7.55032 19.6492 39.893
          -19.4091 -3.53655 48.7898
          9.08042 -2.35809 50.0378
          -7.68053 6.91186 47.0861
          15.0383 10.8287 40.6087
          -13.7658 15.1566 49.2835
          21.9628 -0.676431 35.2996
          -0.189699 0.773088 57.6893
          -13.0137 15.7917 59.2859
          -7.41228 16.8004 54.6593
          26.8375 7.45913 36.8793
          10.1147 10.421 55.4961
          -3.17788 -1.51393 46.4986
          -8.30454 2.6152 57.624
          17.0004 23.5477 46.0473
          7.84069 14.9877 40.5383
          9.40421 19.1391 47.2968
          3.1731 6.6222 49.0843
          -5.5816 2.30958 50.4198
          -3.30199 -8.65313 53.1568
          -14.9146 -8.85641 51.6631
          25.083 18.9174 26.0505
          11.938 2.84219 51.6115
          28.4357 18.7994 32.8597
          16.6235 17.8248 46.8403
          -4.43127 7.01604 59.4792
          -22.04 -0.108659 44.9852
          24.2841 1.24661 40.1702
          10.5921 5.32584 45.1731
          -12.6842 4.56346 45.7426
          -3.87403 27.2142 47.6188
          4.95595 -6.0484 51.1326
          -0.760096 22.8095 46.0141
          23.9155 22.5525 30.9869
          -11.7735 -4.57275 60.74
          17.6316 20.8919 36.0612
          21.3697 -4.83288 47.2691
          -11.5719 11.4257 42.2947
          15.413 -7.46959 50.634
          -11.5532 -1.58864 56.0895
          8.08985 5.3019 54.9902
          7.00918 20.0155 53.3263
          -7.19933 12.5616 62.3147
          -3.37201 14.717 48.823
          -13.8003 17.2108 38.5554
          0.0155046 10.1484 59.1949
          -0.553743 0.309208 51.024
          -9.65635 -0.644159 48.3514
          18.4805 2.81776 36.377
          -19.6185 7.54952 48.4987
          13.67 15.4672 38.2305
          30.5945 18.0219 27.9941
          20.1122 10.8585 38.8432
          -16.3278 3.09535 52.803
          -10.5434 25.9342 43.8298
          17.1133 -3.48931 44.3369
          6.03287 21.7837 35.6144
          4.27671 24.8621 35.933
          31.7688 0.90894 36.7271
          22.7279 14.9949 42.4014
          -12.1214 14.4312 54.2556
          8.37313 -4.18553 56.5949
          20.5411 2.46094 51.0576
          9.83489 -8.79875 44.2068
          4.64083 27.2004 48.5845
          21.1754 7.55485 46.1356
          1.53488 -9.96933 51.6631
          -12.9394 5.95601 55.7931
          30.5742 8.23201 33.0261
          -3.93463 -13.3986 47.7934
          -5.11315 -10.6698 59.0161
          -17.0795 22.4064 44.2364
          10.0269 10.4827 41.7063
          2.66107 27.5796 41.2994
          -10.1639 -13.3328 52.8002
          1.80906 19.8622 54.241
          3.32024 4.44558 56.9888
          -20.0101 11.2996 45.0263
          -5.84092 -6.4827 61.3415
          14.9231 2.5212 37.7314
          14.9421 15.6273 51.1021
          26.9842 2.45574 36.0478
          -3.77918 19.3513 60.0087
          -7.03795 21.9078 44.393
          -2.3241 3.42215 44.344
          7.71916 26.6695 46.218
          -19.6036 10.7777 34.2666
          -22.8549 12.2219 33.9341
          -20.4464 12.9787 32.8691
          6.59789 11.7383 51.983
          -17.6891 12.025 49.8131
          29.6001 25.7424 29.2329
          -20.6803 10.6212 40.0787
          1.16345 17.5273 46.0652
          16.217 6.30848 55.6527
          16.2241 4.66847 49.7051
          -3.87403 -4.40217 50.5465
          9.91483 -10.7769 51.8165
          7.66114 2.99706 49.0016
          -8.65555 12.8836 57.5293
        </DataArray>
      </Points>
      <Cells>
        <DataArray type="Int32" Name="connectivity" format="ascii">
          225 219 59 95
          132 238 239 231
          276 158 61 218
          151 48 165 207
          296 27 143 96
          8 128 352 94
          20 348 156 109
          375 306 343 276
          346 294 280 38
          384 343 159 308
          308 69 264 192
          377 293 330 182
          275 363 288 315
          269 314 290 299
          261 189 116 253
          298 4 383 7
          145 34 287 286
          260 237 204 155
          348 301 156 279
          403 60 307 397
          281 271 357 318
          165 212 105 6
          279 150 382 29
          344 111 142 45
          72 130 337 31
          277 388 300 360
          61 294 248 247
          288 315 363 19
          361 270 294 326
          201 355 311 279
          33 278 291 350
          385 189 261 52
          108 35 282 309
          57 380 112 168
          208 48 151 207
          82 176 59 225
          325 106 126 335
          356 284 99 387
          410 269 299 371
          150 29 355 307
          247 346 117 38
          376 370 144 288
          34 287 312 191
          121 191 331 287
          172 44 106 335
          275 297 363 315
          35 282 334 296
          301 295 272 279
          248 178 117 247
          32 303 338 198
          71 212 211 165
          90 190 405 322
          85 176 111 332
          344 332 111 402
          184 95 162 28
          196 197 287 77
          316 55 382 150
          244 208 151 243
          399 397 60 398
          307 348 355 279
          290 395 329 314
          342 133 408 5
          401 150 316 388
          379 236 129 49
          298 188 4 7
          277 109 348 87
          88 370 144 376
          363 280 297 370
          174 371 302 401
          331 62 52 153
          279 394 201 78
          163 240 51 209
          321 288 42 282
          288 363 199 19
          38 158 294 81
          184 217 28 155
          366 67 163 224
          409 104 203 11
          339 304 406 275
          84 293 182 330
          35 296 93 76
          253 116 254 153
          206 168 215 70
          306 114 327 81
          363 315 199 19
          316 388 277 401
          336 299 271 324
          30 309 134 177
          2 410 353 319
          131 331 153 6
          274 270 383 298
          283 299 290 271
          101 37 378 324
          162 362 82 28
          302 314 273 340
          183 371 319 103
          402 173 344 334
          203 1 342 118
          63 372 5 293
          145 286 287 358
          338 135 317 180
          290 305 301 354
          234 266 60 194
          52 62 189 153
          77 331 131 197
          145 110 358 54
          331 62 153 6
          332 111 85 344
          66 371 302 174
          392 222 124 50
          82 176 332 59
          174 371 401 316
          263 264 192 308
          225 82 184 95
          314 269 348 277
          371 269 299 302
          336 356 387 271
          272 394 279 295
          339 409 333 274
          406 136 292 373
          184 82 155 28
          320 3 102 295
          387 99 24 284
          50 139 392 379
          308 305 69 171
          321 282 42 177
          322 351 24 284
          8 352 285 94
          399 194 60 397
          288 363 370 282
          285 400 310 268
          406 275 303 292
          329 110 395 323
          406 376 303 275
          276 343 384 308
          159 308 343 141
          22 313 281 333
          392 321 75 134
          198 163 209 56
          394 295 365 78
          353 410 101 319
          292 22 73 136
          269 295 279 316
          53 364 287 312
          278 407 291 358
          279 78 201 382
          113 275 303 390
          147 63 387 281
          198 366 163 224
          294 327 270 335
          149 150 388 46
          287 191 331 312
          30 309 177 91
          276 171 25 326
          82 36 332 176
          35 282 296 76
          98 72 300 337
          151 337 31 105
          332 36 85 176
          401 388 360 149
          296 344 142 45
          298 383 339 7
          180 51 124 222
          22 292 313 333
          154 300 12 72
          342 408 137 5
          151 48 105 165
          376 304 297 275
          272 301 69 305
          315 280 297 363
          280 370 296 96
          394 41 141 74
          305 125 4 188
          279 382 201 29
          376 297 288 363
          328 268 290 284
          144 370 27 282
          65 160 391 285
          367 276 294 61
          100 288 376 166
          339 188 298 7
          152 48 312 105
          247 178 117 346
          357 271 290 329
          279 193 78 382
          312 167 286 337
          66 174 302 14
          332 402 344 362
          200 100 32 303
          140 60 403 115
          283 354 289 268
          282 199 76 108
          181 13 291 121
          115 154 12 72
          362 97 155 28
          63 318 185 23
          57 380 216 123
          82 95 59 162
          309 282 321 177
          380 57 377 330
          66 103 319 371
          368 276 61 218
          126 8 391 160
          317 51 124 180
          313 374 21 137
          274 285 270 400
          129 236 205 49
          173 362 58 334
          100 88 42 376
          99 127 24 284
          385 13 189 121
          262 18 308 187
          370 27 282 296
          207 48 165 211
          32 366 303 198
          346 178 93 10
          274 298 339 328
          57 216 168 70
          71 212 165 6
          279 295 394 78
          114 352 81 8
          118 357 407 293
          380 57 112 377
          177 282 27 91
          288 321 363 282
          291 385 331 121
          80 380 377 330
          88 304 148 297
          281 318 387 271
          292 409 313 333
          198 67 338 163
          188 339 104 7
          308 171 192 25
          290 314 329 271
          268 285 298 327
          289 40 169 386
          114 40 306 386
          30 309 58 97
          363 321 199 282
          301 20 125 314
          313 409 281 333
          309 282 177 91
          203 357 281 11
          276 367 294 326
          152 337 105 312
          26 375 276 396
          290 301 125 314
          22 147 90 333
          35 332 344 334
          242 195 251 229
          170 387 99 318
          343 107 119 341
          166 321 42 75
          32 338 135 198
          372 342 5 293
          288 199 359 19
          277 316 279 307
          292 339 275 113
          90 136 22 333
          338 166 288 303
          326 4 17 383
          303 366 67 198
          66 302 122 14
          22 281 372 147
          156 301 311 279
          280 106 96 38
          23 157 324 86
          146 74 120 311
          82 36 176 225
          330 407 181 291
          344 142 9 213
          401 371 302 316
          183 320 319 371
          77 287 331 197
          113 390 19 339
          283 299 271 336
          170 157 336 23
          210 154 12 115
          90 351 322 333
          139 392 124 50
          270 327 326 298
          274 383 339 298
          299 314 290 271
          274 400 298 328
          295 193 279 316
          295 3 107 78
          282 280 296 76
          165 211 48 212
          278 330 407 293
          42 376 144 288
          276 306 396 375
          396 306 327 81
          82 184 162 28
          61 178 248 294
          244 151 337 31
          356 284 310 127
          294 327 335 325
          306 343 40 119
          322 351 284 400
          374 408 21 137
          369 222 392 50
          294 38 247 158
          303 67 338 198
          33 345 291 77
          291 350 287 77
          243 208 151 245
          310 128 386 47
          256 255 71 254
          403 60 397 115
          307 316 279 150
          321 16 199 108
          334 344 296 45
          152 48 191 312
          281 318 293 63
          360 122 202 364
          383 4 17 7
          289 393 169 102
          375 119 343 306
          367 276 61 368
          385 189 89 261
          315 164 76 363
          326 171 25 17
          409 351 328 281
          300 340 286 87
          121 62 189 331
          231 224 56 239
          312 197 105 6
          225 36 176 219
          24 65 190 322
          40 107 289 102
          302 371 269 316
          276 306 404 327
          387 63 318 281
          23 170 318 336
          375 306 40 119
          80 380 112 377
          407 330 377 293
          57 168 112 206
          310 352 386 128
          97 49 186 204
          134 321 42 177
          400 285 298 268
          133 195 229 251
          244 337 68 31
          343 394 41 141
          97 204 155 28
          276 326 305 171
          12 300 403 72
          275 297 376 363
          37 378 324 350
          116 255 256 254
          274 284 328 351
          292 409 333 339
          66 302 378 122
          174 103 316 55
          285 322 94 310
          269 302 316 277
          359 390 288 19
          302 401 277 360
          66 299 101 378
          133 377 112 5
          335 391 327 270
          300 277 286 340
          42 134 166 75
          378 273 324 350
          125 301 69 156
          348 316 279 277
          361 294 10 326
          277 348 340 87
          280 370 96 106
          337 130 68 31
          329 323 407 358
          316 382 279 150
          363 164 76 199
          314 20 110 340
          160 126 44 391
          247 294 346 38
          247 178 346 294
          346 96 117 38
          130 68 154 72
          85 36 138 176
          406 15 136 373
          82 225 59 95
          300 277 340 87
          65 322 94 285
          308 384 368 92
          360 388 98 149
          312 167 105 53
          75 321 42 134
          113 275 390 339
          212 62 331 6
          278 318 84 293
          316 307 277 388
          278 185 84 318
          396 114 306 81
          302 314 340 277
          359 67 338 303
          259 385 261 52
          119 343 341 159
          403 46 115 72
          281 409 203 11
          292 104 313 409
          405 190 15 304
          291 345 350 77
          350 287 77 196
          290 314 125 395
          308 276 368 384
          348 109 20 87
          289 283 393 320
          391 8 327 285
          285 352 310 94
          322 24 310 284
          229 250 267 251
          235 36 219 176
          225 226 219 95
          228 124 222 50
          129 139 228 50
          114 306 40 375
          156 311 264 43
          326 4 305 171
          268 305 290 354
          328 290 305 188
          276 298 305 326
          173 334 143 45
          276 305 308 171
          190 65 304 322
          282 321 199 108
          34 337 152 312
          63 372 293 281
          367 25 10 326
          276 25 367 326
          61 247 248 246
          279 295 78 193
          316 193 382 55
          284 271 283 290
          125 301 156 20
          79 152 68 244
          130 79 68 244
          198 338 317 163
          395 110 329 314
          331 385 52 189
          98 72 337 31
          139 124 228 50
          251 168 39 206
          151 48 152 105
          292 136 73 200
          101 324 336 157
          372 137 5 342
          135 51 317 180
          327 276 326 298
          287 34 121 191
          8 128 114 352
          296 96 45 142
          376 406 304 275
          189 62 52 331
          288 297 370 363
          363 280 370 282
          296 143 45 96
          357 407 278 329
          280 96 346 38
          83 233 214 230
          400 322 310 284
          294 178 248 247
          225 36 219 226
          372 313 342 281
          174 55 316 401
          26 343 159 384
          266 307 60 194
          159 343 41 141
          126 8 81 327
          299 378 273 324
          283 310 47 356
          263 18 192 262
          313 409 203 281
          53 287 364 197
          12 403 115 72
          34 312 152 191
          315 164 363 199
          203 342 357 118
          241 225 184 95
          280 38 325 106
          318 185 84 63
          391 126 44 335
          302 364 378 122
          126 8 327 391
          400 285 270 298
          280 361 76 363
          161 356 47 127
          122 364 378 196
          217 260 28 155
          32 347 366 198
          64 356 161 127
          396 81 327 158
          292 22 313 73
          359 67 317 338
          37 350 77 196
          289 107 119 343
          122 364 196 53
          346 178 10 361
          242 251 250 229
          33 350 291 345
          274 400 328 284
          61 294 247 158
          133 195 112 377
          157 37 324 86
          390 275 288 19
          348 20 340 87
          272 305 69 308
          2 320 410 319
          187 308 368 92
          328 395 188 11
          397 210 403 115
          281 284 328 387
          47 94 127 310
          90 405 136 333
          403 210 12 115
          387 284 328 271
          352 285 327 8
          85 176 138 111
          144 177 27 91
          154 68 300 72
          151 152 337 105
          288 16 199 321
          307 355 266 140
          313 408 374 137
          353 283 161 356
          328 284 290 271
          291 278 287 350
          190 148 15 304
          19 383 17 7
          276 171 308 25
          298 4 326 383
          353 101 336 64
          339 383 19 7
          197 312 331 6
          370 335 106 280
          316 3 295 193
          93 344 9 213
          60 398 397 115
          66 378 37 122
          340 20 145 87
          215 216 257 70
          260 204 28 155
          112 80 251 168
          259 13 89 385
          301 305 125 69
          348 156 355 279
          82 95 162 184
          410 299 269 283
          319 410 101 66
          47 283 169 310
          282 27 143 296
          92 308 18 187
          308 69 192 171
          64 101 336 157
          34 287 286 312
          332 176 402 59
          137 408 342 313
          197 312 287 331
          386 40 169 128
          57 168 206 70
          276 396 327 158
          334 282 143 296
          329 271 278 357
          26 396 276 158
          363 280 282 76
          32 303 166 338
          275 315 288 19
          164 361 10 17
          65 24 94 322
          50 379 392 265
          404 289 272 354
          57 380 168 216
          213 142 9 117
          138 36 235 176
          267 251 39 206
          112 251 267 206
          304 391 335 270
          297 304 391 335
          297 391 44 335
          212 48 312 191
          55 150 316 401
          14 360 202 98
          342 377 133 5
          293 318 84 63
          135 163 51 198
          364 286 53 202
          259 385 89 261
          287 54 291 121
          32 166 75 338
          404 305 354 272
          53 286 167 202
          264 311 146 43
          307 29 355 140
          102 295 107 289
          283 356 336 271
          102 3 107 295
          402 362 332 59
          42 288 144 282
          64 336 170 157
          304 285 391 270
          281 271 328 357
          341 343 41 159
          200 100 303 373
          61 276 294 158
          284 310 127 24
          108 76 282 35
          122 378 37 196
          204 49 186 155
          97 204 186 155
          221 261 116 253
          237 49 204 155
          224 239 223 56
          135 198 51 209
          130 244 68 31
          168 216 215 70
          57 216 70 123
          303 390 288 359
          112 168 251 206
          245 208 151 207
          208 48 152 151
          198 163 51 209
          131 345 33 77
          202 286 167 360
          292 339 406 275
          289 295 343 272
          153 62 212 6
          104 1 313 203
          165 48 105 212
          276 308 367 25
          276 158 218 384
          26 375 343 276
          231 132 214 21
          400 285 304 274
          331 385 189 121
          206 168 39 215
          303 275 288 390
          113 303 67 390
          308 262 187 25
          322 351 400 274
          400 268 328 284
          220 93 9 213
          85 93 9 220
          351 387 24 284
          163 223 209 56
          225 176 59 219
          163 224 223 56
          198 224 163 56
          356 310 47 127
          179 0 224 132
          182 293 84 63
          297 275 304 270
          197 331 131 6
          342 195 133 377
          367 294 178 61
          5 293 182 63
          283 290 354 268
          212 331 312 6
          132 214 238 231
          132 83 238 214
          238 83 233 214
          226 225 241 95
          398 210 397 115
          85 138 220 227
          85 138 227 111
          97 204 236 49
          231 224 239 132
          163 223 240 209
          129 139 205 228
          14 302 360 401
          179 132 231 21
          179 224 231 132
          179 224 56 231
          153 254 71 255
          255 212 71 6
          83 232 233 230
          189 62 116 253
          153 255 71 6
          52 189 253 153
          189 62 253 153
          133 251 229 267
          261 189 253 52
          259 261 221 52
          221 261 253 52
          236 237 205 49
          236 204 237 49
          198 338 135 317
          79 208 244 243
          244 208 152 151
          400 268 298 328
          400 284 310 268
          133 195 251 112
          242 229 232 230
          83 242 232 230
          83 195 242 230
          230 195 242 133
          242 195 229 133
          230 242 229 133
          133 251 267 112
          265 321 392 134
          53 312 287 197
          249 242 250 229
          79 208 152 244
          61 158 246 218
          322 400 304 274
          61 247 246 158
          66 378 101 37
          280 346 361 294
          289 386 393 283
          57 13 380 123
          232 242 249 229
          153 212 255 6
          153 62 255 212
          253 62 116 255
          253 255 116 153
          116 255 254 153
          253 62 255 153
          258 13 216 89
          257 216 258 70
          123 216 70 258
          309 282 91 143
          70 258 259 123
          123 259 216 258
          259 13 216 258
          259 13 258 89
          386 128 169 47
          310 386 169 47
          123 13 216 259
          259 89 221 261
          114 386 352 128
          377 182 112 5
          349 292 313 73
          166 338 321 75
          289 40 386 306
          373 406 303 292
          336 324 271 318
          314 20 125 110
          88 15 148 304
          54 145 121 358
          330 181 380 13
          352 327 81 8
          322 24 94 310
          147 387 351 281
          267 250 39 251
          283 268 310 284
          280 270 361 315
          311 365 74 201
          40 289 169 102
          33 175 131 291
          362 334 309 58
          55 150 401 388
          268 298 305 404
          326 25 10 17
          180 222 392 369
          103 193 316 55
          290 125 305 188
          305 4 125 69
          24 190 90 322
          351 284 328 281
          300 388 98 360
          356 127 99 284
          336 387 318 271
          185 278 84 389
          404 298 305 276
          50 392 369 265
          339 298 188 328
          379 49 108 186
          315 164 199 19
          280 297 335 270
          281 357 328 11
          166 288 42 321
          389 278 33 345
          280 270 294 361
          328 290 188 395
          53 286 364 312
          335 106 126 44
          355 29 266 140
          5 293 342 377
          280 335 106 325
          173 362 402 59
          108 35 309 186
          330 278 389 84
          333 136 22 292
          212 312 105 6
          75 392 369 180
          295 3 78 193
          334 296 143 45
          23 324 185 86
          338 67 317 163
          312 53 105 197
          75 135 338 180
          84 278 293 330
          364 287 196 197
          174 55 401 149
          122 364 53 202
          322 65 391 285
          276 404 268 327
          284 290 283 268
          377 80 251 112
          338 288 16 359
          392 16 288 321
          291 54 181 121
          268 327 298 276
          76 280 346 361
          201 29 355 279
          361 178 10 294
          283 284 356 271
          343 289 40 119
          34 286 337 312
          94 128 310 47
          91 282 27 143
          270 315 297 275
          387 63 99 318
          281 342 293 357
          113 339 19 7
          299 329 314 271
          313 104 203 409
          0 1 374 313
          114 386 306 352
          120 29 266 355
          283 269 290 299
          65 8 160 285
          392 139 321 379
          336 283 353 356
          303 100 288 376
          367 308 187 25
          40 107 119 289
          14 174 401 149
          177 282 42 144
          370 297 335 280
          139 16 321 108
          286 340 145 87
          144 282 27 177
          98 337 167 31
          337 31 105 167
          312 337 105 167
          309 321 134 177
          309 108 321 282
          352 128 310 94
          357 271 278 318
          98 286 167 337
          298 305 4 188
          290 125 188 395
          353 356 161 64
          8 65 94 285
          0 1 313 104
          0 313 292 104
          329 395 357 323
          289 386 169 393
          364 286 287 312
          286 87 145 34
          392 379 321 265
          390 275 19 339
          280 370 282 296
          37 345 77 350
          76 361 10 164
          367 10 178 294
          113 275 292 303
          274 285 304 270
          307 277 348 279
          295 107 365 78
          395 11 357 323
          384 276 368 218
          14 174 302 401
          150 29 279 355
          156 279 311 355
          303 376 288 275
          324 273 329 278
          350 273 358 287
          350 358 278 287
          298 285 270 327
          23 157 336 324
          212 191 312 331
          338 359 16 317
          76 346 93 10
          33 291 131 77
          296 346 93 76
          363 361 76 315
          340 20 110 145
          0 104 292 113
          300 46 403 72
          302 269 314 277
          269 301 290 314
          334 173 344 45
          212 62 191 331
          121 191 62 331
          291 331 131 77
          291 287 331 77
          291 121 331 287
          131 331 52 153
          291 13 385 121
          298 4 305 326
          294 367 10 326
          55 388 401 149
          310 94 127 24
          280 38 335 325
          14 401 360 149
          270 298 326 383
          371 295 269 316
          53 364 196 197
          88 44 172 297
          88 148 44 297
          145 286 358 340
          305 4 69 171
          278 358 291 287
          376 288 42 166
          275 376 288 363
          54 358 121 287
          150 355 279 307
          348 20 314 340
          32 100 166 303
          303 100 166 288
          277 348 314 340
          269 316 348 277
          357 342 293 118
          32 338 75 135
          87 12 68 300
          154 68 12 300
          87 300 109 12
          212 48 105 312
          286 167 312 53
          263 308 192 18
          262 18 192 308
          192 262 308 25
          87 277 109 300
          361 326 10 17
          76 361 346 10
          403 397 109 12
          410 336 299 283
          199 363 282 76
          313 1 342 203
          269 295 301 279
          361 164 76 315
          372 281 63 147
          104 339 113 7
          362 402 344 334
          384 158 218 26
          118 407 377 293
          372 342 293 281
          299 269 273 302
          393 2 102 320
          379 139 129 50
          410 320 371 319
          388 46 98 149
          42 88 144 376
          38 81 294 325
          275 315 19 339
          391 285 327 270
          360 149 98 14
          14 122 360 302
          118 377 342 293
          290 305 125 301
          344 111 227 142
          344 227 9 142
          66 319 410 371
          146 311 18 74
          311 141 18 74
          281 387 328 271
          147 99 351 387
          73 366 347 179
          405 190 304 322
          161 283 47 356
          170 127 99 356
          266 140 60 307
          404 343 308 272
          150 140 307 46
          185 86 278 389
          86 278 389 345
          135 317 51 163
          198 317 135 163
          159 308 92 384
          64 127 170 356
          150 29 307 140
          329 407 278 358
          159 141 92 308
          92 141 18 308
          385 13 89 189
          85 111 227 344
          380 13 216 123
          30 309 91 58
          311 301 272 279
          198 366 224 56
          198 347 366 56
          198 67 163 366
          366 179 224 56
          336 356 353 64
          347 179 366 56
          69 272 311 301
          69 301 311 156
          69 311 264 156
          311 69 264 308
          263 264 308 311
          263 311 308 18
          308 141 18 311
          146 311 263 18
          146 264 263 311
          272 69 311 308
          64 356 170 336
          293 407 278 357
          318 278 185 324
          324 278 185 86
          318 324 271 278
          313 1 374 408
          269 273 314 299
          302 269 273 314
          328 271 290 357
          92 384 368 218
          300 403 109 12
          162 97 362 28
          173 162 58 362
          362 82 332 59
          270 315 280 297
          360 364 202 286
          148 160 44 391
          410 299 101 66
          87 68 34 337
          354 295 272 301
          23 170 99 318
          118 11 323 357
          268 305 354 404
          276 306 343 404
          388 150 307 46
          63 23 99 318
          320 295 102 289
          365 41 394 74
          394 365 201 78
          311 394 141 74
          2 183 102 320
          183 3 102 320
          2 183 320 319
          22 313 372 281
          22 137 372 313
          372 137 342 313
          333 322 405 274
          295 107 394 365
          394 107 41 365
          276 158 384 26
          370 27 96 106
          370 27 296 96
          330 181 80 380
          333 351 322 274
          362 59 162 82
          410 101 299 336
          22 333 281 351
          22 351 281 147
          129 139 379 205
          129 379 49 205
          101 37 324 157
          87 337 34 286
          152 34 68 337
          23 324 318 185
          23 324 336 318
          26 343 384 276
          58 97 362 162
          298 328 305 188
          173 59 162 362
          309 362 58 97
          326 4 171 17
          327 81 294 158
          276 327 294 158
          327 276 294 326
          270 327 294 326
          354 289 272 295
          281 357 293 318
          325 81 327 126
          294 81 327 325
          268 328 290 305
          268 298 328 305
          277 388 360 401
          324 329 271 278
          145 34 358 287
          358 34 121 287
          358 286 287 273
          358 340 110 145
          145 34 121 358
          358 54 291 287
          340 286 358 273
          299 329 271 324
          299 273 329 324
          299 273 314 329
          35 344 296 334
          375 114 306 396
          288 359 338 303
          330 389 381 84
          288 199 16 359
          322 391 304 285
          299 273 378 302
          381 330 182 57
          84 330 182 381
          37 378 350 196
          289 268 386 283
          386 268 310 283
          352 386 306 268
          114 40 386 128
          268 289 386 306
          352 310 386 268
          311 365 394 74
          338 392 288 321
          325 327 335 126
          265 392 369 134
          335 38 294 325
          280 38 294 335
          297 304 335 270
          75 392 338 321
          280 294 270 335
          404 289 354 268
          147 99 24 351
          58 309 91 334
          334 309 91 143
          58 334 91 143
          58 334 143 173
          309 282 143 334
          35 282 309 334
          186 35 309 334
          172 44 335 297
          369 392 75 134
          293 357 278 318
          101 324 299 336
          405 322 304 274
          90 322 405 333
          354 305 301 272
          300 72 68 337
          72 130 68 337
          87 300 68 337
          87 300 337 286
          346 178 361 294
          244 152 68 337
          244 151 152 337
          166 288 321 338
          202 360 167 98
          47 161 393 283
          360 286 167 98
          66 371 410 302
          66 410 299 302
          292 104 339 113
          410 371 299 302
          313 137 21 349
          391 8 285 160
          378 273 350 364
          378 364 350 196
          101 378 299 324
          289 320 393 102
          66 299 378 302
          302 273 378 364
          408 1 342 313
          358 110 323 54
          281 313 342 203
          407 54 291 358
          373 136 292 200
          358 323 407 54
          200 373 303 292
          195 377 251 112
          104 409 188 11
          333 409 281 351
          289 295 107 343
          306 289 40 343
          100 376 42 166
          123 13 259 385
          26 119 159 343
          35 344 93 296
          35 332 93 344
          344 332 93 85
          93 85 9 344
          85 220 9 344
          344 220 9 227
          85 220 344 227
          117 178 213 346
          346 178 213 93
          93 346 344 213
          346 142 344 213
          346 142 213 117
          346 96 142 117
          296 96 142 346
          296 344 346 142
          296 344 93 346
          280 96 296 346
          296 280 346 76
          362 155 82 28
          347 200 32 303
          283 284 310 356
          109 277 348 307
          20 301 156 348
          20 314 301 348
          314 269 301 348
          301 269 279 348
          269 316 279 348
          313 22 349 73
          313 22 137 349
          0 292 313 349
          37 350 86 345
          350 278 86 345
          33 278 350 345
          324 278 86 350
          37 324 86 350
          379 139 49 205
          324 273 278 350
          90 147 351 333
          22 333 351 147
          90 147 24 351
          90 351 24 322
          114 327 81 352
          306 114 352 327
          327 306 268 352
          356 284 387 271
          285 310 352 268
          327 352 268 285
          351 99 24 387
          351 387 284 281
          290 269 354 301
          269 295 354 301
          320 295 354 269
          283 320 354 269
          283 269 354 290
          283 320 289 354
          320 295 289 354
          333 405 304 274
          201 29 120 355
          74 201 120 355
          74 355 120 311
          120 355 146 311
          311 355 146 43
          355 252 146 43
          355 194 252 43
          109 355 43 194
          109 307 355 194
          307 266 355 194
          266 194 234 355
          355 194 234 252
          120 355 234 252
          120 252 146 355
          120 266 234 355
          109 348 355 307
          109 156 355 348
          109 156 43 355
          156 355 311 43
          74 201 355 311
          203 118 357 11
          281 342 357 203
          273 340 314 358
          340 110 314 358
          358 110 314 329
          273 358 314 329
          329 273 358 278
          350 273 278 358
          329 110 323 358
          98 360 337 300
          360 286 337 300
          360 277 286 300
          277 360 286 340
          395 314 125 110
          277 302 360 340
          362 173 402 334
          98 286 337 360
          14 122 202 360
          307 397 109 403
          332 362 344 334
          35 332 334 362
          35 362 334 186
          186 334 309 362
          309 186 362 97
          362 97 186 155
          186 155 82 362
          332 362 186 82
          35 332 362 186
          288 321 199 363
          1 377 195 342
          280 361 363 315
          340 360 286 364
          340 364 286 273
          286 273 364 287
          350 273 287 364
          350 364 287 196
          379 49 186 97
          309 379 186 97
          309 379 108 186
          302 122 360 364
          340 302 360 364
          340 302 364 273
          265 379 129 50
          97 236 379 49
          366 0 67 224
          366 0 224 179
          366 0 179 349
          73 366 179 349
          366 292 349 73
          73 200 366 292
          366 200 303 292
          366 113 292 303
          366 113 303 67
          0 113 366 67
          0 113 292 366
          0 292 349 366
          347 200 303 366
          32 347 303 366
          73 200 347 366
          187 308 367 368
          308 276 367 368
          47 393 169 283
          272 343 394 295
          393 386 169 283
          180 222 369 50
          288 370 144 282
          377 57 112 182
          381 291 175 33
          88 172 370 297
          172 297 335 370
          172 335 106 370
          172 27 370 106
          144 172 27 370
          88 172 144 370
          371 3 295 316
          371 3 316 193
          103 371 316 193
          103 3 371 193
          183 3 371 103
          183 3 320 371
          320 3 295 371
          320 295 269 371
          174 103 371 316
          66 103 371 174
          374 313 21 349
          349 374 179 21
          179 374 132 21
          374 214 132 21
          374 214 21 230
          409 281 328 11
          409 328 188 11
          1 195 374 133
          374 195 230 133
          374 195 83 230
          83 214 374 230
          374 83 132 214
          179 0 132 374
          349 0 179 374
          0 313 374 349
          274 400 270 298
          285 322 310 400
          26 119 343 375
          357 323 407 329
          278 407 330 291
          376 15 373 100
          373 100 303 376
          118 323 54 407
          100 15 88 376
          88 15 304 376
          88 304 297 376
          88 297 370 376
          376 297 370 288
          330 57 377 182
          377 181 80 330
          118 181 377 330
          118 181 80 377
          377 118 1 80
          1 80 195 377
          195 80 251 377
          342 118 1 377
          5 293 377 182
          379 321 265 134
          30 379 265 134
          30 309 379 134
          379 309 321 134
          309 108 379 321
          379 108 139 321
          379 108 49 139
          30 97 379 309
          30 97 129 379
          97 236 129 379
          30 379 129 265
          380 80 112 168
          386 310 169 283
          57 291 381 330
          390 303 67 359
          316 193 279 382
          274 304 383 270
          383 304 275 270
          383 270 275 315
          339 383 275 315
          339 315 19 383
          19 164 383 315
          164 315 361 383
          315 270 361 383
          383 270 361 326
          361 383 326 17
          164 383 361 17
          19 164 17 383
          339 304 275 383
          274 304 339 383
          131 385 331 291
          131 175 385 291
          385 291 175 381
          57 385 175 381
          57 291 385 381
          57 385 291 330
          330 385 291 181
          385 13 291 181
          330 13 385 181
          385 13 330 380
          57 385 330 380
          57 13 385 380
          57 13 123 385
          57 385 123 175
          123 385 52 175
          131 175 52 385
          131 385 52 331
          123 385 259 52
          336 170 318 387
          336 170 387 356
          170 356 99 387
          147 63 99 387
          55 150 388 149
          316 150 307 388
          276 343 308 404
          300 46 72 388
          388 46 72 98
          300 388 72 98
          291 389 33 381
          291 389 381 330
          291 278 389 330
          291 278 33 389
          126 391 327 335
          65 160 148 391
          190 65 148 391
          190 391 148 304
          297 148 391 304
          297 148 44 391
          190 65 391 304
          322 65 304 391
          139 16 392 321
          139 16 124 392
          392 317 16 124
          392 317 124 180
          180 222 124 392
          338 317 392 180
          75 338 392 180
          338 317 16 392
          338 16 288 392
          343 295 107 394
          343 394 107 341
          341 107 41 394
          343 341 41 394
          308 272 343 394
          308 394 343 141
          308 141 311 394
          308 394 311 272
          272 311 279 394
          279 311 201 394
          394 311 201 365
          328 357 395 11
          328 357 290 395
          357 329 290 395
          276 306 327 396
          322 285 304 400
          307 60 194 397
          307 194 109 397
          306 343 404 289
          404 306 268 327
          306 289 404 268
          404 343 272 289
          404 305 272 308
          302 316 277 401
          276 305 404 308
          400 351 284 274
          332 176 111 402
          344 402 111 45
          344 173 402 45
          46 115 140 403
          46 403 140 307
          140 60 307 403
          307 46 403 388
          388 46 403 300
          277 388 403 300
          277 403 109 300
          277 307 109 403
          277 388 307 403
          397 210 12 403
          268 298 404 276
          373 376 303 406
          406 15 373 376
          376 15 304 406
          405 304 15 406
          405 15 136 406
          405 406 136 333
          292 333 136 406
          292 339 333 406
          274 406 333 339
          274 304 406 339
          274 304 333 406
          405 304 406 333
          407 54 181 291
          407 54 118 181
          330 407 118 181
          118 330 377 407
          118 357 323 407
          1 374 408 133
          374 230 408 133
          374 230 21 408
          1 195 133 408
          408 195 133 342
          1 195 408 342
          333 274 409 351
          274 351 328 409
          409 274 339 328
          409 339 188 328
          104 339 188 409
          292 104 409 339
          320 410 269 283
          393 410 320 283
          393 161 410 283
          410 283 161 353
          2 410 161 353
          161 2 393 410
          410 2 393 320
          353 336 410 283
          353 101 410 336
          320 269 410 371
        </DataArray>
        <DataArray type="Int32" Name="offsets" format="ascii">
          4 8 12 16 20 24 28 32 36 40 44 48 52 56 60 64 68 72 76 80 84 88 92 96 100 104 108 112 116 120 124 128 132 136 140 144 148 152 156 160 164 168 172 176 180 184 188 192 196 200 204 208 212 216 220 224 228 232 236 240 244 248 252 256 260 264 268 272 276 280 284 288 292 296 300 304 308 312 316 320 324 328 332 336 340 344 348 352 356 360 364 368 372 376 380 384 388 392 396 400 404 408 412 416 420 424 428 432 436 440 444 448 452 456 460 464 468 472 476 480 484 488 492 496 500 504 508 512 516 520 524 528 532 536 540 544 548 552 556 560 564 568 572 576 580 584 588 592 596 600 604 608 612 616 620 624 628 632 636 640 644 648 652 656 660 664 668 672 676 680 684 688 692 696 700 704 708 712 716 720 724 728 732 736 740 744 748 752 756 760 764 768 772 776 780 784 788 792 796 800 804 808 812 816 820 824 828 832 836 840 844 848 852 856 860 864 868 872 876 880 884 888 892 896 900 904 908 912 916 920 924 928 932 936 940 944 948 952 956 960 964 968 972 976 980 984 988 992 996 1000 1004 1008 1012 1016 1020 1024 1028 1032 1036 1040 1044 1048 1052 1056 1060 1064 1068 1072 1076 1080 1084 1088 1092 1096 1100 1104 1108 1112 1116 1120 1124 1128 1132 1136 1140 1144 1148 1152 1156 1160 1164 1168 1172 1176 1180 1184 1188 1192 1196 1200 1204 1208 1212 1216 1220 1224 1228 1232 1236 1240 1244 1248 1252 1256 1260 1264 1268 1272 1276 1280 1284 1288 1292 1296 1300 1304 1308 1312 1316 1320 1324 1328 1332 1336 1340 1344 1348 1352 1356 1360 1364 1368 1372 1376 1380 1384 1388 1392 1396 1400 1404 1408 1412 1416 1420 1424 1428 1432 1436 1440 1444 1448 1452 1456 1460 1464 1468 1472 1476 1480 1484 1488 1492 1496 1500 1504 1508 1512 1516 1520 1524 1528 1532 1536 1540 1544 1548 1552 1556 1560 1564 1568 1572 1576 1580 1584 1588 1592 1596 1600 1604 1608 1612 1616 1620 1624 1628 1632 1636 1640 1644 1648 1652 1656 1660 1664 1668 1672 1676 1680 1684 1688 1692 1696 1700 1704 1708 1712 1716 1720 1724 1728 1732 1736 1740 1744 1748 1752 1756 1760 1764 1768 1772 1776 1780 1784 1788 1792 1796 1800 1804 1808 1812 1816 1820 1824 1828 1832 1836 1840 1844 1848 1852 1856 1860 1864 1868 1872 1876 1880 1884 1888 1892 1896 1900 1904 1908 1912 1916 1920 1924 1928 1932 1936 1940 1944 1948 1952 1956 1960 1964 1968 1972 1976 1980 1984 1988 1992 1996 2000 2004 2008 2012 2016 2020 2024 2028 2032 2036 2040 2044 2048 2052 2056 2060 2064 2068 2072 2076 2080 2084 2088 2092 2096 2100 2104 2108 2112 2116 2120 2124 2128 2132 2136 2140 2144 2148 2152 2156 2160 2164 2168 2172 2176 2180 2184 2188 2192 2196 2200 2204 2208 2212 2216 2220 2224 2228 2232 2236 2240 2244 2248 2252 2256 2260 2264 2268 2272 2276 2280 2284 2288 2292 2296 2300 2304 2308 2312 2316 2320 2324 2328 2332 2336 2340 2344 2348 2352 2356 2360 2364 2368 2372 2376 2380 2384 2388 2392 2396 2400 2404 2408 2412 2416 2420 2424 2428 2432 2436 2440 2444 2448 2452 2456 2460 2464 2468 2472 2476 2480 2484 2488 2492 2496 2500 2504 2508 2512 2516 2520 2524 2528 2532 2536 2540 2544 2548 2552 2556 2560 2564 2568 2572 2576 2580 2584 2588 2592 2596 2600 2604 2608 2612 2616 2620 2624 2628 2632 2636 2640 2644 2648 2652 2656 2660 2664 2668 2672 2676 2680 2684 2688 2692 2696 2700 2704 2708 2712 2716 2720 2724 2728 2732 2736 2740 2744 2748 2752 2756 2760 2764 2768 2772 2776 2780 2784 2788 2792 2796 2800 2804 2808 2812 2816 2820 2824 2828 2832 2836 2840 2844 2848 2852 2856 2860 2864 2868 2872 2876 2880 2884 2888 2892 2896 2900 2904 2908 2912 2916 2920 2924 2928 2932 2936 2940 2944 2948 2952 2956 2960 2964 2968 2972 2976 2980 2984 2988 2992 2996 3000 3004 3008 3012 3016 3020 3024 3028 3032 3036 3040 3044 3048 3052 3056 3060 3064 3068 3072 3076 3080 3084 3088 3092 3096 3100 3104 3108 3112 3116 3120 3124 3128 3132 3136 3140 3144 3148 3152 3156 3160 3164 3168 3172 3176 3180 3184 3188 3192 3196 3200 3204 3208 3212 3216 3220 3224 3228 3232 3236 3240 3244 3248 3252 3256 3260 3264 3268 3272 3276 3280 3284 3288 3292 3296 3300 3304 3308 3312 3316 3320 3324 3328 3332 3336 3340 3344 3348 3352 3356 3360 3364 3368 3372 3376 3380 3384 3388 3392 3396 3400 3404 3408 3412 3416 3420 3424 3428 3432 3436 3440 3444 3448 3452 3456 3460 3464 3468 3472 3476 3480 3484 3488 3492 3496 3500 3504 3508 3512 3516 3520 3524 3528 3532 3536 3540 3544 3548 3552 3556 3560 3564 3568 3572 3576 3580 3584 3588 3592 3596 3600 3604 3608 3612 3616 3620 3624 3628 3632 3636 3640 3644 3648 3652 3656 3660 3664 3668 3672 3676 3680 3684 3688 3692 3696 3700 3704 3708 3712 3716 3720 3724 3728 3732 3736 3740 3744 3748 3752 3756 3760 3764 3768 3772 3776 3780 3784 3788 3792 3796 3800 3804 3808 3812 3816 3820 3824 3828 3832 3836 3840 3844 3848 3852 3856 3860 3864 3868 3872 3876 3880 3884 3888 3892 3896 3900 3904 3908 3912 3916 3920 3924 3928 3932 3936 3940 3944 3948 3952 3956 3960 3964 3968 3972 3976 3980 3984 3988 3992 3996 4000 4004 4008 4012 4016 4020 4024 4028 4032 4036 4040 4044 4048 4052 4056 4060 4064 4068 4072 4076 4080 4084 4088 4092 4096 4100 4104 4108 4112 4116 4120 4124 4128 4132 4136 4140 4144 4148 4152 4156 4160 4164 4168 4172 4176 4180 4184 4188 4192 4196 4200 4204 4208 4212 4216 4220 4224 4228 4232 4236 4240 4244 4248 4252 4256 4260 4264 4268 4272 4276 4280 4284 4288 4292 4296 4300 4304 4308 4312 4316 4320 4324 4328 4332 4336 4340 4344 4348 4352 4356 4360 4364 4368 4372 4376 4380 4384 4388 4392 4396 4400 4404 4408 4412 4416 4420 4424 4428 4432 4436 4440 4444 4448 4452 4456 4460 4464 4468 4472 4476 4480 4484 4488 4492 4496 4500 4504 4508 4512 4516 4520 4524 4528 4532 4536 4540 4544 4548 4552 4556 4560 4564 4568 4572 4576 4580 4584 4588 4592 4596 4600 4604 4608 4612 4616 4620 4624 4628 4632 4636 4640 4644 4648 4652 4656 4660 4664 4668 4672 4676 4680 4684 4688 4692 4696 4700 4704 4708 4712 4716 4720 4724 4728 4732 4736 4740 4744 4748 4752 4756 4760 4764 4768 4772 4776 4780 4784 4788 4792 4796 4800 4804 4808 4812 4816 4820 4824 4828 4832 4836 4840 4844 4848 4852 4856 4860 4864 4868 4872 4876 4880 4884 4888 4892 4896 4900 4904 4908 4912 4916 4920 4924 4928 4932 4936 4940 4944 4948 4952 4956 4960 4964 4968 4972 4976 4980 4984 4988 4992 4996 5000 5004 5008 5012 5016 5020 5024 5028 5032 5036 5040 5044 5048 5052 5056 5060 5064 5068 5072 5076 5080 5084 5088 5092 5096 5100 5104 5108 5112 5116 5120 5124 5128 5132 5136 5140 5144 5148 5152 5156 5160 5164 5168 5172 5176 5180 5184 5188 5192 5196 5200 5204 5208 5212 5216 5220 5224 5228 5232 5236 5240 5244 5248 5252 5256 5260 5264 5268 5272 5276 5280 5284 5288 5292 5296 5300 5304 5308 5312 5316 5320 5324 5328 5332 5336 5340 5344 5348 5352 5356 5360 5364 5368 5372 5376 5380 5384 5388 5392 5396 5400 5404 5408 5412 5416 5420 5424 5428 5432 5436 5440 5444 5448 5452 5456 5460 5464 5468 5472 5476 5480 5484 5488 5492 5496 5500 5504 5508 5512 5516 5520 5524 5528 5532 5536 5540 5544 5548 5552 5556 5560 5564 5568 5572 5576 5580 5584 5588 5592 5596 5600 5604 5608 5612 5616 5620 5624 5628 5632 5636 5640 5644 5648 5652 5656 5660 5664 5668 5672 5676 5680 5684 5688 5692 5696 5700 5704 5708 5712 5716 5720 5724 5728 5732 5736 5740 5744 5748 5752 5756 5760 5764 5768 5772 5776 5780 5784 5788 5792 5796 5800 5804 5808 5812 5816 5820 5824 5828 5832 5836 5840 5844 5848 5852 5856 5860 5864 5868 5872 5876 5880 5884 5888 5892 5896 5900 5904 5908 5912 5916 5920 5924 5928 5932 5936 5940 5944 5948 5952 5956 5960 5964 5968 5972 5976 5980 5984 5988 5992 5996 6000 6004 6008 6012 6016 6020 6024 6028 6032 6036 6040 6044 6048 6052 6056 6060 
        </DataArray>
        <DataArray type="UInt8" Name="types" format="ascii">
          10 10 10 10 10 10 10 10 10 10 10 10 10 10 10 10 10 10 10 10 10 10 10 10 10 10 10 10 10 10 10 10 10 10 10 10 10 10 10 10 10 10 10 10 10 10 10 10 10 10 10 10 10 10 10 10 10 10 10 10 10 10 10 10 10 10 10 10 10 10 10 10 10 10 10 10 10 10 10 10 10 10 10 10 10 10 10 10 10 10 10 10 10 10 10 10 10 10 10 10 10 10 10 10 10 10 10 10 10 10 10 10 10 10 10 10 10 10 10 10 10 10 10 10 10 10 10 10 10 10 10 10 10 10 10 10 10 10 10 10 10 10 10 10 10 10 10 10 10 10 10 10 10 10 10 10 10 10 10 10 10 10 10 10 10 10 10 10 10 10 10 10 10 10 10 10 10 10 10 10 10 10 10 10 10 10 10 10 10 10 10 10 10 10 10 10 10 10 10 10 10 10 10 10 10 10 10 10 10 10 10 10 10 10 10 10 10 10 10 10 10 10 10 10 10 10 10 10 10 10 10 10 10 10 10 10 10 10 10 10 10 10 10 10 10 10 10 10 10 10 10 10 10 10 10 10 10 10 10 10 10 10 10 10 10 10 10 10 10 10 10 10 10 10 10 10 10 10 10 10 10 10 10 10 10 10 10 10 10 10 10 10 10 10 10 10 10 10 10 10 10 10 10 10 10 10 10 10 10 10 10 10 10 10 10 10 10 10 10 10 10 10 10 10 10 10 10 10 10 10 10 10 10 10 10 10 10 10 10 10 10 10 10 10 10 10 10 10 10 10 10 10 10 10 10 10 10 10 10 10 10 10 10 10 10 10 10 10 10 10 10 10 10 10 10 10 10 10 10 10 10 10 10 10 10 10 10 10 10 10 10 10 10 10 10 10 10 10 10 10 10 10 10 10 10 10 10 10 10 10 10 10 10 10 10 10 10 10 10 10 10 10 10 10 10 10 10 10 10 10 10 10 10 10 10 10 10 10 10 10 10 10 10 10 10 10 10 10 10 10 10 10 10 10 10 10 10 10 10 10 10 10 10 10 10 10 10 10 10 10 10 10 10 10 10 10 10 10 10 10 10 10 10 10 10 10 10 10 10 10 10 10 10 10 10 10 10 10 10 10 10 10 10 10 10 10 10 10 10 10 10 10 10 10 10 10 10 10 10 10 10 10 10 10 10 10 10 10 10 10 10 10 10 10 10 10 10 10 10 10 10 10 10 10 10 10 10 10 10 10 10 10 10 10 10 10 10 10 10 10 10 10 10 10 10 10 10 10 10 10 10 10 10 10 10 10 10 10 10 10 10 10 10 10 10 10 10 10 10 10 10 10 10 10 10 10 10 10 10 10 10 10 10 10 10 10 10 10 10 10 10 10 10 10 10 10 10 10 10 10 10 10 10 10 10 10 10 10 10 10 10 10 10 10 10 10 10 10 10 10 10 10 10 10 10 10 10 10 10 10 10 10 10 10 10 10 10 10 10 10 10 10 10 10 10 10 10 10 10 10 10 10 10 10 10 10 10 10 10 10 10 10 10 10 10 10 10 10 10 10 10 10 10 10 10 10 10 10 10 10 10 10 10 10 10 10 10 10 10 10 10 10 10 10 10 10 10 10 10 10 10 10 10 10 10 10 10 10 10 10 10 10 10 10 10 10 10 10 10 10 10 10 10 10 10 10 10 10 10 10 10 10 10 10 10 10 10 10 10 10 10 10 10 10 10 10 10 10 10 10 10 10 10 10 10 10 10 10 10 10 10 10 10 10 10 10 10 10 10 10 10 10 10 10 10 10 10 10 10 10 10 10 10 10 10 10 10 10 10 10 10 10 10 10 10 10 10 10 10 10 10 10 10 10 10 10 10 10 10 10 10 10 10 10 10 10 10 10 10 10 10 10 10 10 10 10 10 10 10 10 10 10 10 10 10 10 10 10 10 10 10 10 10 10 10 10 10 10 10 10 10 10 10 10 10 10 10 10 10 10 10 10 10 10 10 10 10 10 10 10 10 10 10 10 10 10 10 10 10 10 10 10 10 10 10 10 10 10 10 10 10 10 10 10 10 10 10 10 10 10 10 10 10 10 10 10 10 10 10 10 10 10 10 10 10 10 10 10 10 10 10 10 10 10 10 10 10 10 10 10 10 10 10 10 10 10 10 10 10 10 10 10 10 10 10 10 10 10 10 10 10 10 10 10 10 10 10 10 10 10 10 10 10 10 10 10 10 10 10 10 10 10 10 10 10 10 10 10 10 10 10 10 10 10 10 10 10 10 10 10 10 10 10 10 10 10 10 10 10 10 10 10 10 10 10 10 10 10 10 10 10 10 10 10 10 10 10 10 10 10 10 10 10 10 10 10 10 10 10 10 10 10 10 10 10 10 10 10 10 10 10 10 10 10 10 10 10 10 10 10 10 10 10 10 10 10 10 10 10 10 10 10 10 10 10 10 10 10 10 10 10 10 10 10 10 10 10 10 10 10 10 10 10 10 10 10 10 10 10 10 10 10 10 10 10 10 10 10 10 10 10 10 10 10 10 10 10 10 10 10 10 10 10 10 10 10 10 10 10 10 10 10 10 10 10 10 10 10 10 10 10 10 10 10 10 10 10 10 10 10 10 10 10 10 10 10 10 10 10 10 10 10 10 10 10 10 10 10 10 10 10 10 10 10 10 10 10 10 10 10 10 10 10 10 10 10 10 10 10 10 10 10 10 10 10 10 10 10 10 10 10 10 10 10 10 10 10 10 10 10 10 10 10 10 10 10 10 10 10 10 10 10 10 10 10 10 10 10 10 10 10 10 10 10 10 10 10 10 10 10 10 10 10 10 10 10 10 10 10 10 10 10 10 10 10 10 10 10 10 10 10 10 10 10 10 10 10 10 10 10 10 10 10 10 10 10 10 10 10 10 10 10 10 10 10 10 10 10 10 10 10 10 10 10 10 10 10 10 10 10 10 10 10 10 10 10 10 10 10 10 10 10 10 10 10 10 10 10 10 10 10 10 10 10 10 10 10 10 10 10 10 10 10 10 10 10 10 10 10 10 10 10 10 10 10 10 10 10 10 10 10 10 10 10 10 10 10 10 10 10 10 10 10 10 10 10 10 10 10 10 10 10 10 10 10 10 10 10 10 10 10 10 10 10 10 10 10 10 10 10 10 10 10 10 10 10 10 10 10 10 10 10 10 10 10 10 10 10 10 10 10 10 10 10 10 10 10 10 10 10 10 10 10 10 10 10 10 10 10 10 10 10 10 10 10 10 10 10 10 10 10 10 10 10 10 10 10 10 10 10 10 10 10 10 10 10 10 10 10 10 10 10 10 10 10 10 10 10 10 10 10 10 10 10 10 10 10 10 10 10 10 10 10 10 10 10 10 10 10 10 10 10 10 10 10 10 10 10 10 10 10 10 10 10 10 
        </DataArray>
      </Cells>
    </Piece>
  </UnstructuredGrid>
</VTKFile>
